<svg width="243" height="49" viewBox="0 0 243 49" fill="none" xmlns="http://www.w3.org/2000/svg">
<path d="M19.1224 42.3846C20.5023 42.9917 21.8648 43.6454 23.2589 44.2131C24.7035 44.6345 26.1183 45.1408 27.5722 45.4876C29.055 45.7161 30.5181 46.0602 32.0047 46.195C33.4853 46.2241 35.0263 46.4082 36.4454 46.3128C37.8378 46.1128 39.0539 45.2498 40.1289 44.2569C41.2002 43.2525 42.1375 42.0892 42.9921 40.8706C43.4243 40.2645 43.8201 39.6317 44.2098 38.9955L44.7667 38.0284L44.899 37.7856C44.9011 37.7856 44.9811 37.619 44.9186 37.7566L44.9577 37.619C44.9888 37.4547 45.1096 37.2168 45.0666 37.1122C45.0241 37.0059 45.0323 36.9182 45.01 36.8037C44.943 36.687 44.8864 36.5714 44.8374 36.447C44.6589 36.2859 44.4934 36.0974 44.1129 35.8946L42.1827 34.7133L34.4586 29.9888L33.4967 29.3921L33.2567 29.2431L33.1968 29.2058C33.3993 29.3028 33.2153 29.2179 33.2431 29.2338L33.1108 29.1834C32.9535 29.1395 32.7162 28.997 32.6247 29.0343C32.524 29.0562 32.438 29.0551 32.3351 29.0425C32.2105 29.0858 32.0875 29.1214 31.9601 29.1499C31.7331 29.2853 31.5894 29.3362 31.2884 29.6628L28.1056 32.8908L27.3093 33.6974L26.9119 34.1007L26.7127 34.3023L26.5728 34.419L26.5439 34.4387L26.4846 34.4771L26.3676 34.5555C26.201 34.7418 25.3883 35.0519 24.8576 34.9631C24.3067 34.9396 23.7912 34.602 23.4232 34.2826L20.2166 31.0782L13.7988 24.671L12.9976 23.8704L12.5969 23.4693L12.4962 23.3701L12.4717 23.3444L12.3536 23.2025L12.3133 23.1449L12.1549 22.9088C12.1016 22.826 12.0493 22.7641 11.996 22.6627C11.9405 22.5132 11.8893 22.3537 11.849 22.1904C11.7505 21.849 11.7358 21.5378 11.8131 21.2731C11.8349 20.7175 12.3003 20.1663 12.5539 19.8693L15.7448 16.6501L16.5466 15.8484L16.9473 15.4484L16.9979 15.398L17.0235 15.3734C16.9897 15.4145 17.1324 15.2462 16.9549 15.4599L17.0344 15.3421L17.1933 15.1071C17.3506 14.9219 17.294 14.8473 17.3044 14.7816C17.3272 14.7246 17.3506 14.6358 17.3196 14.5054C17.331 14.2386 17.2331 14.1235 17.1089 13.8506L14.519 10.1229L9.338 2.66695L9.01412 2.20119L8.853 1.96776C9.03372 2.17653 8.88784 2.01214 8.92158 2.05269L8.896 2.02804L8.84592 1.97927L8.74359 1.88118C8.60696 1.73543 8.44856 1.59899 8.41971 1.67022C8.36908 1.68392 8.34677 1.61269 8.22647 1.65159C8.00438 1.63625 7.90912 1.7179 7.63967 1.87516L6.81446 2.59188C5.7296 3.5875 4.69917 4.656 3.81027 5.81547C2.92463 6.97164 2.15331 8.22206 1.72165 9.54865C1.53167 10.2172 1.39994 10.8758 1.43696 11.5552L1.53494 13.827C1.52351 15.369 1.89039 16.7767 2.07002 18.2539C2.34328 19.7082 2.77712 21.1488 3.17448 22.5822C4.19511 25.3795 5.3638 28.1587 7.05941 30.6299C8.62819 33.1823 10.646 35.4163 12.7635 37.5374L12.3966 37.9429L12.2888 37.8377L12.6813 37.4662C13.0411 37.9637 13.3449 38.5007 13.5169 39.0876C13.5784 39.3867 13.6987 39.6739 13.696 39.9824C13.7123 40.2656 13.7618 40.6196 13.7041 40.8963C13.6611 41.1862 13.6693 41.4706 13.5533 41.7681C13.4548 42.0596 13.3944 42.3692 13.2316 42.6235C12.9791 43.1676 12.5866 43.6443 12.1827 44.0602L7.29728 49L11.9884 43.8723C12.3716 43.4438 12.7074 42.9983 12.9263 42.4794C13.0711 42.235 13.1075 41.9599 13.1881 41.7007C13.2844 41.4525 13.2703 41.1418 13.3019 40.8574C13.347 40.5577 13.2823 40.3325 13.2605 40.0371C13.2556 39.7577 13.1309 39.5023 13.0678 39.2355C12.8931 38.7111 12.5991 38.2426 12.2644 37.8114L12.6568 37.4404L12.769 37.5418L12.401 37.9473C10.1785 35.8788 7.9973 33.6974 6.35123 31.1034C4.56145 28.6096 3.29478 25.7861 2.18324 22.9247C1.73961 21.4551 1.26386 19.9898 0.945423 18.4764C0.718435 16.952 0.310183 15.3986 0.290587 13.8961L0.143072 11.627C0.0815616 10.7881 0.216013 9.93496 0.445178 9.14974C0.94379 7.58425 1.78806 6.22095 2.72595 4.97436C3.66983 3.72613 4.73945 2.60284 5.87167 1.54803L6.75186 0.772133C7.10132 0.520076 7.67995 0.173224 8.23137 0.224183C8.73379 0.143635 9.61507 0.63405 9.72013 0.835696L9.82246 0.932683L9.87472 0.98145L9.9003 1.00611C9.95038 1.0631 9.82409 0.911861 10.0195 1.14036L10.1828 1.37214L10.5094 1.8357L15.7432 9.25221L18.3598 12.9602C18.589 13.3449 18.8819 13.9158 18.8563 14.426C18.9662 14.855 18.656 15.7394 18.4709 15.9843L18.3136 16.2205L18.2357 16.3383L18.1198 16.4769L18.0953 16.5027L18.0457 16.552L17.6473 16.9564L16.8526 17.763L13.6562 20.9783C13.4477 21.2567 13.3596 21.3044 13.3416 21.5296C13.2921 21.6364 13.3187 21.6962 13.3253 21.7274C13.322 21.7504 13.3078 21.7756 13.2883 21.8134C13.3182 21.8775 13.3868 21.9663 13.4341 22.0419L13.5914 22.2786L13.6306 22.3373C13.6573 22.3723 13.4673 22.1367 13.5599 22.2485L13.5844 22.2732L13.684 22.3745L14.0824 22.7778L14.8777 23.5844L21.247 30.0393L24.4308 33.2661C24.6518 33.4223 24.7667 33.5237 24.9937 33.5412C25.1891 33.51 25.1776 33.6634 25.5941 33.3653L25.7122 33.2875L25.7715 33.2491L25.8015 33.2294C25.8363 33.2037 25.6044 33.3889 25.7138 33.2985L25.9141 33.0979L26.3148 32.6979L27.116 31.8963L30.3227 28.6918C30.5252 28.4562 31.0216 28.0661 31.4598 27.8803L32.1751 27.6913C32.4483 27.6831 32.739 27.7028 33.0134 27.7357C33.303 27.7685 33.3966 27.8628 33.5969 27.9225L33.7286 27.9746C33.7994 28.0096 33.6639 27.9329 33.9044 28.0595L33.9638 28.0968L34.2027 28.2475L35.1591 28.8524L42.7788 33.7456L44.6834 34.9681C44.9724 35.1253 45.3742 35.4437 45.704 35.8366C45.8151 36.0557 45.9196 36.282 46.0132 36.5078C46.0742 36.7582 46.0758 37.0568 46.0769 37.3259C46.072 37.5999 45.9784 37.7138 45.9343 37.9155L45.8918 38.0508C45.8047 38.2804 45.8249 38.1906 45.7873 38.2766L45.6436 38.5286L45.0454 39.5166C44.63 40.1632 44.2087 40.8043 43.7499 41.4196C42.8403 42.6569 41.8458 43.8427 40.688 44.8805C39.5536 45.9002 38.1492 46.8515 36.5189 47.012C34.9387 47.0564 33.4684 46.8071 31.9437 46.7183C30.4419 46.5227 28.9695 46.1172 27.4867 45.8279C26.029 45.4202 24.6153 44.8503 23.1848 44.3731C21.8136 43.7512 20.4773 43.0443 19.1224 42.3846Z" fill="#25C7FA"/>
<path d="M69.2382 13.4307C71.5989 13.4307 73.4626 14.0769 74.8293 15.3693C76.1961 16.6617 76.8795 18.4023 76.8795 20.5911C76.8795 22.8007 76.1961 24.5466 74.8293 25.8286C73.4626 27.1106 71.6091 27.7516 69.2692 27.7516H64.0818V35.7563H59.2051V13.4307H69.2382ZM67.9646 23.9368C69.3728 23.9368 70.4236 23.6763 71.1174 23.1551C71.8112 22.634 72.158 21.7793 72.158 20.5911C72.158 19.4446 71.8215 18.6004 71.1485 18.0584C70.4755 17.5163 69.4245 17.2454 67.9957 17.2454H64.0818V23.9368H67.9646ZM83.8684 13.4307V21.8419H83.9616C84.4586 21.008 85.1316 20.3514 85.9807 19.872C86.8297 19.3925 87.7306 19.1528 88.6831 19.1528C90.7332 19.1528 92.2189 19.6739 93.1405 20.7162C94.0621 21.7585 94.5228 23.4053 94.5228 25.6566V35.7563H90.1119V26.5634C90.1119 25.2501 89.8997 24.2703 89.4752 23.6242C89.0506 22.978 88.3207 22.6548 87.2853 22.6548C86.1049 22.6548 85.2403 23.0144 84.6916 23.7336C84.1429 24.4528 83.8684 25.6358 83.8684 27.2826V35.7563H79.4576V13.4307H83.8684ZM105.674 19.1528C108.242 19.1528 110.271 19.9397 111.762 21.5135C113.253 23.0874 113.999 25.146 113.999 27.6891C113.999 30.2531 113.238 32.3115 111.716 33.8646C110.194 35.4177 108.18 36.1941 105.674 36.1941C103.127 36.1941 101.108 35.4071 99.617 33.8333C98.126 32.2595 97.3805 30.2115 97.3805 27.6891C97.3805 25.0833 98.1415 23.0091 99.6636 21.4666C101.186 19.9242 103.189 19.1528 105.674 19.1528ZM101.791 27.6891C101.791 29.3358 102.123 30.6073 102.785 31.5038C103.448 32.4003 104.411 32.8483 105.674 32.8483C106.979 32.8483 107.957 32.3897 108.609 31.4725C109.262 30.5553 109.588 29.2942 109.588 27.6891C109.588 26.0214 109.251 24.7393 108.578 23.843C107.905 22.9467 106.927 22.4985 105.643 22.4985C104.401 22.4985 103.448 22.9467 102.785 23.843C102.123 24.7394 101.791 26.0214 101.791 27.6891ZM126.082 19.1528C128.132 19.1528 129.618 19.674 130.539 20.7162C131.461 21.7584 131.922 23.4158 131.922 25.6879V35.7563H127.511V26.5947C127.511 25.2605 127.299 24.2703 126.874 23.6242C126.449 22.978 125.72 22.6548 124.684 22.6548C123.483 22.6548 122.613 23.0196 122.075 23.7492C121.536 24.4788 121.267 25.6774 121.267 27.3451V35.7563H116.856V19.5905H121.05V21.8419H121.143C122.241 20.0491 123.887 19.1528 126.082 19.1528ZM142.7 19.1528C144.212 19.1528 145.558 19.5071 146.738 20.2159C147.919 20.9246 148.845 21.9513 149.518 23.2958C150.191 24.6404 150.528 26.1881 150.528 27.9392C150.528 28.1059 150.518 28.3769 150.497 28.7521H138.911C138.952 30.0446 139.289 31.0504 139.92 31.7695C140.552 32.4887 141.52 32.8483 142.824 32.8483C143.632 32.8483 144.372 32.6451 145.045 32.2386C145.718 31.8321 146.148 31.337 146.334 30.7533H150.217C149.078 34.3805 146.573 36.194 142.7 36.194C141.23 36.1732 139.868 35.8501 138.615 35.2247C137.363 34.5993 136.363 33.6249 135.618 32.3011C134.872 30.9774 134.5 29.44 134.5 27.689C134.5 26.0423 134.878 24.5412 135.634 23.1864C136.389 21.8315 137.394 20.8204 138.647 20.1533C139.899 19.4862 141.251 19.1528 142.7 19.1528ZM146.086 25.938C145.879 24.729 145.496 23.8535 144.937 23.3115C144.378 22.7694 143.58 22.4985 142.545 22.4985C141.468 22.4985 140.619 22.806 139.998 23.4209C139.377 24.0359 139.014 24.8749 138.911 25.938H146.086ZM158.449 13.4307V21.9982H167.426V13.4307H172.302V35.7563H167.426V26.1256H158.449V35.7563H153.572V13.4307H158.449ZM183.516 19.1528C188.196 19.1736 190.536 20.7057 190.536 23.7492V32.3168C190.536 33.901 190.722 35.0476 191.095 35.7563H186.622C186.456 35.256 186.353 34.7349 186.312 34.1929C185.007 35.527 183.205 36.1941 180.907 36.1941C179.229 36.1941 177.899 35.7667 176.915 34.912C175.932 34.0574 175.44 32.8691 175.44 31.3475C175.44 29.8674 175.906 28.7209 176.838 27.9079C177.79 27.0533 179.519 26.5113 182.025 26.282C183.806 26.0944 184.934 25.8598 185.411 25.5784C185.887 25.297 186.125 24.8645 186.125 24.2808C186.125 23.5512 185.908 23.0092 185.473 22.6548C185.038 22.3004 184.313 22.1233 183.298 22.1233C182.367 22.1233 181.663 22.3161 181.186 22.7017C180.71 23.0874 180.43 23.7075 180.348 24.5622H175.937C176.04 22.7904 176.765 21.4458 178.111 20.5286C179.457 19.6113 181.259 19.1528 183.516 19.1528ZM179.851 31.1598C179.851 32.5357 180.751 33.2236 182.553 33.2236C184.914 33.2027 186.104 31.9832 186.125 29.5652V27.8454C185.773 28.1998 184.883 28.4603 183.454 28.6271C182.211 28.773 181.3 29.0284 180.72 29.3932C180.141 29.758 179.851 30.3469 179.851 31.1598ZM197.059 19.5905L200.445 30.6283H200.507L203.893 19.5905H208.272L202.837 35.7563H197.929L192.431 19.5905H197.059ZM217.529 19.1528C219.041 19.1528 220.387 19.5071 221.567 20.2159C222.747 20.9246 223.674 21.9513 224.347 23.2958C225.02 24.6404 225.357 26.1881 225.357 27.9392C225.357 28.1059 225.346 28.3769 225.326 28.7521H213.739C213.781 30.0446 214.117 31.0504 214.749 31.7695C215.38 32.4887 216.349 32.8483 217.653 32.8483C218.461 32.8483 219.201 32.6451 219.874 32.2386C220.547 31.8321 220.977 31.337 221.163 30.7533H225.046C223.907 34.3805 221.401 36.194 217.529 36.194C216.059 36.1732 214.697 35.8501 213.444 35.2247C212.191 34.5993 211.192 33.6249 210.447 32.3011C209.701 30.9774 209.329 29.44 209.329 27.689C209.329 26.0423 209.706 24.5412 210.462 23.1864C211.218 21.8315 212.222 20.8204 213.475 20.1533C214.728 19.4862 216.079 19.1528 217.529 19.1528ZM220.915 25.938C220.708 24.729 220.325 23.8535 219.765 23.3115C219.206 22.7694 218.409 22.4985 217.374 22.4985C216.297 22.4985 215.448 22.806 214.827 23.4209C214.205 24.0359 213.843 24.8749 213.739 25.938H220.915ZM237.16 19.1528C239.21 19.1528 240.696 19.674 241.618 20.7162C242.539 21.7584 243 23.4158 243 25.6879V35.7563H238.589V26.5947C238.589 25.2605 238.377 24.2703 237.952 23.6242C237.528 22.978 236.798 22.6548 235.762 22.6548C234.561 22.6548 233.692 23.0196 233.153 23.7492C232.615 24.4788 232.346 25.6774 232.346 27.3451V35.7563H227.935V19.5905H232.128V21.8419H232.221C233.319 20.0491 234.965 19.1528 237.16 19.1528Z" fill="#E3E3E3"/>
</svg>
