<svg width="390" height="94" viewBox="0 0 390 94" fill="none" xmlns="http://www.w3.org/2000/svg">
<g clip-path="url(#clip0_10_22)">
<path d="M48.9366 83.8185C51.0388 84.7373 53.1144 85.7266 55.2382 86.5858C57.439 87.2235 59.5943 87.9897 61.8092 88.5146C64.0681 88.8604 66.2972 89.3812 68.5619 89.5852C70.8175 89.6292 73.1651 89.9078 75.327 89.7635C77.4483 89.4608 79.3009 88.1547 80.9387 86.6521C82.5706 85.1321 83.9986 83.3715 85.3006 81.5273C85.959 80.6101 86.5619 79.6523 87.1556 78.6895L88.004 77.2259L88.2055 76.8585C88.2088 76.8585 88.3307 76.6064 88.2353 76.8146L88.295 76.6064C88.3423 76.3576 88.5264 75.9977 88.4609 75.8393C88.3962 75.6785 88.4087 75.5458 88.3747 75.3725C88.2727 75.1958 88.1864 75.0209 88.1118 74.8326C87.8398 74.5888 87.5877 74.3036 87.008 73.9967L84.0675 72.2088L72.3002 65.0589L70.8349 64.1559L70.4692 63.9303L70.378 63.8739C70.6865 64.0207 70.4062 63.8922 70.4485 63.9162L70.247 63.8399C70.0073 63.7736 69.6458 63.558 69.5064 63.6144C69.353 63.6475 69.222 63.6459 69.0653 63.6268C68.8754 63.6923 68.688 63.7462 68.4939 63.7893C68.1481 63.9942 67.9292 64.0713 67.4706 64.5655L62.6219 69.4507L61.4087 70.6714L60.8033 71.2817L60.4998 71.5869L60.2867 71.7635L60.2428 71.7934L60.1524 71.8514L59.9741 71.97C59.7203 72.252 58.4822 72.7213 57.6737 72.587C56.8345 72.5513 56.0492 72.0405 55.4886 71.557L50.6034 66.7075L40.8264 57.0109L39.6057 55.7994L38.9954 55.1924L38.842 55.0423L38.8047 55.0033L38.6247 54.7885L38.5633 54.7015L38.322 54.344C38.2408 54.2188 38.1612 54.1251 38.0799 53.9717C37.9953 53.7453 37.9174 53.504 37.856 53.2569C37.7059 52.7402 37.6835 52.2692 37.8013 51.8687C37.8344 51.0278 38.5434 50.1936 38.9299 49.7441L43.791 44.8722L45.0125 43.659L45.6229 43.0536L45.7 42.9773L45.739 42.94C45.6875 43.0022 45.9048 42.7476 45.6345 43.071L45.7555 42.8927L45.9977 42.537C46.2373 42.2567 46.1511 42.1439 46.1669 42.0444C46.2017 41.9582 46.2373 41.8238 46.1901 41.6265C46.2075 41.2226 46.0582 41.0485 45.8691 40.6355L41.9235 34.994L34.0306 23.7102L33.5372 23.0054L33.2917 22.6521C33.567 22.9681 33.3448 22.7193 33.3962 22.7806L33.3572 22.7433L33.2809 22.6695L33.125 22.5211C32.9169 22.3005 32.6756 22.094 32.6316 22.2018C32.5545 22.2226 32.5205 22.1147 32.3372 22.1736C31.9989 22.1504 31.8538 22.274 31.4433 22.512L30.1861 23.5966C28.5334 25.1034 26.9636 26.7205 25.6094 28.4752C24.2602 30.2249 23.0852 32.1173 22.4276 34.125C22.1381 35.1367 21.9375 36.1334 21.9939 37.1617L22.1431 40.5998C22.1257 42.9334 22.6846 45.0638 22.9583 47.2994C23.3746 49.5003 24.0355 51.6804 24.6409 53.8498C26.1957 58.0832 27.9762 62.2892 30.5593 66.0292C32.9492 69.8919 36.0233 73.2728 39.2491 76.4829L38.6902 77.0965L38.526 76.9373L39.1239 76.375C39.6721 77.128 40.1348 77.9407 40.3968 78.8288C40.4906 79.2816 40.6738 79.7161 40.6697 80.183C40.6945 80.6117 40.77 81.1475 40.6821 81.5662C40.6166 82.0049 40.629 82.4353 40.4524 82.8856C40.3023 83.3268 40.2103 83.7953 39.9623 84.1801C39.5775 85.0035 38.9796 85.725 38.3643 86.3544L30.9217 93.8302L38.0683 86.07C38.6521 85.4215 39.1637 84.7473 39.4971 83.962C39.7177 83.5921 39.7732 83.1758 39.896 82.7836C40.0427 82.4079 40.0212 81.9377 40.0693 81.5074C40.1381 81.0537 40.0394 80.7129 40.0063 80.2659C39.9988 79.843 39.8089 79.4566 39.7127 79.0527C39.4465 78.2591 38.9987 77.5501 38.4887 76.8975L39.0866 76.3361L39.2574 76.4895L38.6969 77.1031C35.311 73.9727 31.9881 70.6714 29.4804 66.7457C26.7538 62.9717 24.8241 58.6985 23.1308 54.3681C22.4549 52.144 21.7301 49.9266 21.245 47.6361C20.8992 45.3291 20.2773 42.9782 20.2474 40.7043L20.0227 37.2703C19.929 36.0007 20.1338 34.7096 20.4829 33.5213C21.2425 31.152 22.5287 29.0888 23.9575 27.2023C25.3955 25.3132 27.025 23.6132 28.7499 22.0169L30.0908 20.8427C30.6232 20.4612 31.5047 19.9363 32.3447 20.0134C33.1101 19.8915 34.4527 20.6337 34.6127 20.9389L34.7686 21.0856L34.8482 21.1594L34.8872 21.1968C34.9635 21.283 34.7711 21.0541 35.0688 21.3999L35.3176 21.7507L35.8152 22.4523L43.7885 33.6763L47.7748 39.2879C48.1239 39.8701 48.5701 40.7342 48.5311 41.5062C48.6986 42.1555 48.2259 43.494 47.944 43.8646L47.7043 44.2221L47.5857 44.4003L47.4091 44.6101L47.3718 44.6491L47.2963 44.7238L46.6893 45.3358L45.4786 46.5564L40.6091 51.4225C40.2915 51.8438 40.1572 51.916 40.1298 52.2568C40.0544 52.4185 40.095 52.5089 40.1049 52.5561C40.1 52.591 40.0784 52.6291 40.0486 52.6863C40.0942 52.7834 40.1987 52.9177 40.2708 53.0321L40.5105 53.3904L40.5702 53.4791C40.6108 53.5322 40.3214 53.1756 40.4624 53.3448L40.4997 53.3821L40.6514 53.5355L41.2584 54.1458L42.47 55.3665L52.1732 65.1352L57.0236 70.0188C57.3602 70.2551 57.5352 70.4085 57.881 70.435C58.1787 70.3878 58.1613 70.62 58.7957 70.1689L58.9756 70.0511L59.066 69.993L59.1116 69.9632C59.1647 69.9242 58.8114 70.2045 58.9781 70.0677L59.2833 69.7642L59.8936 69.1588L61.1143 67.9456L65.9995 63.0961C66.308 62.7395 67.0643 62.1491 67.7318 61.8679L68.8215 61.5818C69.2378 61.5694 69.6806 61.5993 70.0985 61.649C70.5397 61.6988 70.6823 61.8414 70.9875 61.9318L71.1882 62.0106C71.296 62.0636 71.0895 61.9475 71.456 62.1391L71.5464 62.1955L71.9105 62.4235L73.3675 63.339L84.9755 70.7444L87.8771 72.5944C88.3174 72.8324 88.9294 73.3142 89.432 73.9088C89.6011 74.2405 89.7603 74.583 89.903 74.9247C89.9959 75.3036 89.9983 75.7556 90 76.1628C89.9925 76.5774 89.8499 76.7499 89.7827 77.055L89.7181 77.2599C89.5854 77.6073 89.6161 77.4713 89.5588 77.6015L89.3399 77.983L88.4286 79.4781C87.7958 80.4567 87.154 81.4269 86.4549 82.3582C85.0692 84.2307 83.5541 86.0252 81.7903 87.5958C80.0621 89.1391 77.9226 90.5787 75.439 90.8216C73.0316 90.8888 70.7918 90.5115 68.469 90.3771C66.1811 90.0811 63.9379 89.4674 61.679 89.0296C59.4583 88.4126 57.3047 87.5502 55.1254 86.8279C53.0365 85.8867 51.0006 84.8169 48.9366 83.8185Z" fill="white"/>
<path d="M125.285 40C128.881 40 131.72 40.978 133.803 42.9339C135.885 44.8899 136.926 47.5241 136.926 50.8366C136.926 54.1805 135.885 56.8227 133.803 58.7629C131.72 60.7031 128.897 61.6731 125.332 61.6731H117.429V73.7874H110V40H125.285ZM123.345 55.8999C125.49 55.8999 127.091 55.5056 128.148 54.7169C129.205 53.9282 129.733 52.6348 129.733 50.8366C129.733 49.1014 129.22 47.8239 128.195 47.0036C127.17 46.1832 125.569 45.7732 123.392 45.7732H117.429V55.8999H123.345ZM147.573 40V52.7294H147.715C148.472 51.4675 149.498 50.4738 150.791 49.7482C152.084 49.0226 153.457 48.6598 154.908 48.6598C158.031 48.6598 160.294 49.4485 161.698 51.0259C163.103 52.6032 163.804 55.0955 163.804 58.5026V73.7874H157.085V59.8749C157.085 57.8874 156.761 56.4046 156.115 55.4267C155.468 54.4488 154.356 53.9598 152.778 53.9598C150.98 53.9598 149.663 54.504 148.827 55.5924C147.991 56.6808 147.573 58.4712 147.573 60.9633V73.7874H140.853V40H147.573ZM180.793 48.6598C184.704 48.6598 187.796 49.8507 190.068 52.2326C192.339 54.6144 193.475 57.7299 193.475 61.5785C193.475 65.4588 192.315 68.574 189.997 70.9245C187.678 73.2749 184.61 74.4499 180.793 74.4499C176.912 74.4499 173.836 73.259 171.565 70.8771C169.294 68.4953 168.158 65.3959 168.158 61.5785C168.158 57.635 169.317 54.4959 171.636 52.1616C173.955 49.8272 177.007 48.6598 180.793 48.6598ZM174.877 61.5785C174.877 64.0707 175.382 65.995 176.392 67.3517C177.401 68.7084 178.868 69.3865 180.793 69.3865C182.78 69.3865 184.271 68.6925 185.264 67.3044C186.258 65.9163 186.755 64.0077 186.755 61.5785C186.755 59.0546 186.242 57.1145 185.217 55.758C184.192 54.4015 182.701 53.7232 180.745 53.7232C178.852 53.7232 177.401 54.4014 176.392 55.758C175.382 57.1145 174.877 59.0546 174.877 61.5785ZM211.883 48.6598C215.006 48.6598 217.269 49.4486 218.673 51.0259C220.077 52.6031 220.779 55.1113 220.779 58.5499V73.7874H214.059V59.9223C214.059 57.9032 213.736 56.4046 213.089 55.4267C212.443 54.4488 211.331 53.9598 209.753 53.9598C207.923 53.9598 206.599 54.5119 205.778 55.616C204.958 56.7202 204.548 58.5341 204.548 61.058V73.7874H197.828V49.3223H204.217V52.7294H204.359C206.031 50.0163 208.539 48.6598 211.883 48.6598ZM237.2 48.6598C239.503 48.6598 241.553 49.196 243.351 50.2687C245.15 51.3413 246.561 52.895 247.587 54.9298C248.612 56.9646 249.125 59.307 249.125 61.957C249.125 62.2094 249.109 62.6195 249.077 63.1874H231.426C231.489 65.1433 232.002 66.6655 232.964 67.7539C233.926 68.8423 235.401 69.3865 237.389 69.3865C238.619 69.3865 239.747 69.0789 240.772 68.4637C241.798 67.8485 242.452 67.0993 242.736 66.2159H248.651C246.916 71.7052 243.099 74.4498 237.2 74.4498C234.96 74.4183 232.885 73.9293 230.977 72.9829C229.068 72.0365 227.546 70.5617 226.41 68.5583C225.275 66.555 224.707 64.2284 224.707 61.5785C224.707 59.0863 225.282 56.8146 226.434 54.7642C227.585 52.7138 229.115 51.1836 231.024 50.174C232.933 49.1644 234.991 48.6598 237.2 48.6598ZM242.358 58.9285C242.042 57.0987 241.459 55.7738 240.607 54.9535C239.755 54.1332 238.54 53.7232 236.963 53.7232C235.322 53.7232 234.029 54.1885 233.083 55.1191C232.136 56.0498 231.584 57.3196 231.426 58.9285H242.358ZM261.191 40V52.966H274.867V40H282.297V73.7874H274.867V59.2124H261.191V73.7874H253.762V40H261.191ZM299.38 48.6598C306.51 48.6914 310.074 51.01 310.074 55.616V68.5821C310.074 70.9796 310.358 72.7149 310.926 73.7874H304.112C303.86 73.0303 303.702 72.2416 303.639 71.4213C301.651 73.4404 298.907 74.4499 295.405 74.4499C292.849 74.4499 290.822 73.8032 289.324 72.5097C287.826 71.2163 287.076 69.418 287.076 67.1151C287.076 64.8752 287.786 63.1401 289.206 61.9098C290.657 60.6163 293.291 59.7961 297.108 59.449C299.822 59.1651 301.541 58.8102 302.266 58.3843C302.992 57.9584 303.355 57.3038 303.355 56.4205C303.355 55.3163 303.024 54.4961 302.361 53.9598C301.699 53.4234 300.594 53.1553 299.049 53.1553C297.629 53.1553 296.556 53.4471 295.831 54.0308C295.105 54.6144 294.679 55.5529 294.553 56.8464H287.833C287.991 54.1649 289.095 52.1301 291.146 50.7419C293.197 49.3538 295.941 48.6598 299.38 48.6598ZM293.796 66.8312C293.796 68.9133 295.168 69.9544 297.913 69.9544C301.509 69.9228 303.323 68.0773 303.355 64.4178V61.8151C302.818 62.3514 301.462 62.7457 299.285 62.9981C297.392 63.2189 296.004 63.6054 295.121 64.1575C294.238 64.7096 293.796 65.6008 293.796 66.8312ZM320.012 49.3223L325.17 66.0267H325.264L330.423 49.3223H337.095L328.814 73.7874H321.337L312.961 49.3223H320.012ZM351.197 48.6598C353.5 48.6598 355.55 49.196 357.348 50.2687C359.147 51.3413 360.558 52.895 361.584 54.9298C362.609 56.9646 363.122 59.307 363.122 61.957C363.122 62.2094 363.106 62.6195 363.074 63.1874H345.423C345.486 65.1433 345.999 66.6655 346.961 67.7539C347.923 68.8423 349.398 69.3865 351.386 69.3865C352.616 69.3865 353.744 69.0789 354.769 68.4637C355.795 67.8485 356.449 67.0993 356.733 66.2159H362.648C360.913 71.7052 357.096 74.4498 351.197 74.4498C348.957 74.4183 346.882 73.9293 344.974 72.9829C343.065 72.0365 341.543 70.5617 340.407 68.5583C339.272 66.555 338.704 64.2284 338.704 61.5785C338.704 59.0863 339.279 56.8146 340.431 54.7642C341.582 52.7138 343.112 51.1836 345.021 50.174C346.93 49.1644 348.988 48.6598 351.197 48.6598ZM356.355 58.9285C356.039 57.0987 355.455 55.7738 354.604 54.9535C353.752 54.1332 352.537 53.7232 350.96 53.7232C349.319 53.7232 348.026 54.1885 347.08 55.1191C346.133 56.0498 345.581 57.3196 345.423 58.9285H356.355ZM381.104 48.6598C384.227 48.6598 386.49 49.4486 387.894 51.0259C389.298 52.6031 390 55.1113 390 58.5499V73.7874H383.28V59.9223C383.28 57.9032 382.957 56.4046 382.31 55.4267C381.664 54.4488 380.551 53.9598 378.974 53.9598C377.144 53.9598 375.819 54.5119 374.999 55.616C374.179 56.7202 373.769 58.5341 373.769 61.058V73.7874H367.049V49.3223H373.438V52.7294H373.58C375.252 50.0163 377.76 48.6598 381.104 48.6598Z" fill="white"/>
</g>
<defs>
<clipPath id="clip0_10_22">
<rect width="390" height="93.8302" fill="white"/>
</clipPath>
</defs>
</svg>
