<svg width="243" height="49" viewBox="0 0 243 49" fill="none" xmlns="http://www.w3.org/2000/svg">
<path d="M18.9943 42.1692C20.3742 42.7764 21.7366 43.4301 23.1307 43.9977C24.5754 44.4191 25.9901 44.9254 27.444 45.2723C28.9268 45.5008 30.39 45.8449 31.8765 45.9797C33.3571 46.0087 34.8982 46.1928 36.3172 46.0975C37.7096 45.8975 38.9257 45.0345 40.0008 44.0416C41.072 43.0372 42.0094 41.8739 42.864 40.6552C43.2962 40.0492 43.6919 39.4163 44.0816 38.7802L44.6385 37.813L44.7708 37.5703C44.773 37.5703 44.853 37.4037 44.7904 37.5412L44.8296 37.4037C44.8606 37.2393 44.9814 37.0015 44.9384 36.8969C44.896 36.7906 44.9041 36.7029 44.8818 36.5884C44.8149 36.4717 44.7583 36.356 44.7093 36.2316C44.5307 36.0706 44.3652 35.8821 43.9848 35.6793L42.0545 34.4979L34.3304 29.7735L33.3686 29.1768L33.1285 29.0277L33.0686 28.9905C33.2711 29.0875 33.0871 29.0025 33.1149 29.0184L32.9826 28.968C32.8253 28.9242 32.588 28.7817 32.4965 28.819C32.3958 28.8409 32.3098 28.8398 32.2069 28.8272C32.0823 28.8705 31.9593 28.9061 31.8319 28.9346C31.6049 29.0699 31.4612 29.1209 31.1602 29.4475L27.9775 32.6755L27.1811 33.482L26.7837 33.8853L26.5845 34.087L26.4446 34.2037L26.4158 34.2234L26.3564 34.2618L26.2394 34.3401C26.0728 34.5264 25.2601 34.8366 24.7294 34.7478C24.1785 34.7242 23.663 34.3867 23.2951 34.0672L20.0884 30.8628L13.6707 24.4557L12.8694 23.6551L12.4688 23.254L12.3681 23.1548L12.3436 23.1291L12.2255 22.9871L12.1852 22.9296L12.0268 22.6934C11.9734 22.6107 11.9212 22.5488 11.8678 22.4474C11.8123 22.2978 11.7611 22.1384 11.7209 21.9751C11.6223 21.6337 11.6076 21.3225 11.6849 21.0578C11.7067 20.5022 12.1721 19.951 12.4258 19.654L15.6167 16.4348L16.4185 15.6331L16.8191 15.2331L16.8697 15.1827L16.8953 15.158C16.8616 15.1991 17.0042 15.0309 16.8267 15.2446L16.9062 15.1268L17.0651 14.8917C17.2225 14.7065 17.1658 14.632 17.1762 14.5662C17.1991 14.5093 17.2225 14.4205 17.1914 14.2901C17.2029 14.0232 17.1049 13.9082 16.9808 13.6353L14.3908 9.90757L9.20983 2.45161L8.88595 1.98586L8.72482 1.75243C8.90554 1.9612 8.75966 1.79681 8.79341 1.83736L8.76783 1.8127L8.71775 1.76394L8.61541 1.66585C8.47878 1.5201 8.32038 1.38366 8.29153 1.45489C8.24091 1.46859 8.21859 1.39736 8.09829 1.43626C7.8762 1.42092 7.78094 1.50256 7.5115 1.65982L6.68628 2.37654C5.60142 3.37217 4.57099 4.44067 3.68209 5.60014C2.79646 6.75631 2.02513 8.00673 1.59347 9.33332C1.4035 10.0018 1.27177 10.6605 1.30879 11.3399L1.40677 13.6117C1.39533 15.1536 1.76222 16.5613 1.94185 18.0386C2.21511 19.4929 2.64894 20.9334 3.04631 22.3669C4.06694 25.1642 5.23563 27.9434 6.93124 30.4146C8.50001 32.967 10.5179 35.201 12.6353 37.3221L12.2685 37.7275L12.1607 37.6223L12.5531 37.2508C12.9129 37.7484 13.2167 38.2854 13.3887 38.8722C13.4502 39.1714 13.5705 39.4585 13.5678 39.767C13.5841 40.0503 13.6337 40.4043 13.576 40.681C13.5329 40.9709 13.5411 41.2553 13.4252 41.5528C13.3266 41.8443 13.2662 42.1539 13.1035 42.4081C12.8509 42.9523 12.4584 43.429 12.0545 43.8449L7.16911 48.7846L11.8602 43.6569C12.2434 43.2284 12.5793 42.7829 12.7981 42.264C12.9429 42.0196 12.9794 41.7446 13.0599 41.4854C13.1563 41.2372 13.1421 40.9265 13.1737 40.6421C13.2189 40.3424 13.1541 40.1172 13.1323 39.8218C13.1274 39.5424 13.0028 39.287 12.9396 39.0202C12.7649 38.4958 12.4709 38.0273 12.1362 37.596L12.5286 37.2251L12.6408 37.3264L12.2728 37.7319C10.0503 35.6634 7.86913 33.482 6.22305 30.888C4.43328 28.3943 3.16661 25.5707 2.05507 22.7093C1.61144 21.2397 1.13569 19.7745 0.817249 18.2611C0.590261 16.7367 0.182009 15.1832 0.162413 13.6808L0.0148978 11.4117C-0.0466122 10.5728 0.0878388 9.71962 0.317004 8.93441C0.815617 7.36892 1.65988 6.00562 2.59777 4.75903C3.54165 3.5108 4.61127 2.3875 5.74349 1.3327L6.62369 0.556801C6.97315 0.304744 7.55178 -0.0421081 8.10319 0.00885123C8.60562 -0.0716974 9.48689 0.418718 9.59195 0.620364L9.69429 0.717351L9.74654 0.766118L9.77213 0.790776C9.82221 0.847763 9.69592 0.696529 9.89134 0.925024L10.0546 1.15681L10.3812 1.62037L15.615 9.03688L18.2317 12.7449C18.4608 13.1295 18.7537 13.7005 18.7281 14.2106C18.838 14.6397 18.5278 15.5241 18.3427 15.769L18.1854 16.0052L18.1075 16.123L17.9916 16.2616L17.9671 16.2874L17.9176 16.3367L17.5191 16.7411L16.7244 17.5476L13.528 20.763C13.3196 21.0414 13.2314 21.089 13.2134 21.3143C13.1639 21.4211 13.1906 21.4808 13.1971 21.5121C13.1938 21.5351 13.1797 21.5603 13.1601 21.5981C13.19 21.6622 13.2586 21.751 13.306 21.8266L13.4633 22.0633L13.5025 22.1219C13.5291 22.157 13.3392 21.9214 13.4317 22.0332L13.4562 22.0578L13.5558 22.1592L13.9543 22.5625L14.7495 23.3691L21.1188 29.8239L24.3026 33.0508C24.5236 33.207 24.6385 33.3083 24.8655 33.3259C25.0609 33.2946 25.0495 33.4481 25.4659 33.15L25.584 33.0722L25.6433 33.0338L25.6733 33.0141C25.7081 32.9883 25.4762 33.1735 25.5856 33.0831L25.786 32.8826L26.1866 32.4826L26.9879 31.6809L30.1945 28.4765C30.397 28.2409 30.8935 27.8508 31.3317 27.665L32.0469 27.476C32.3202 27.4677 32.6108 27.4875 32.8852 27.5203C33.1748 27.5532 33.2684 27.6475 33.4687 27.7072L33.6004 27.7592C33.6712 27.7943 33.5357 27.7176 33.7763 27.8442L33.8356 27.8814L34.0746 28.0321L35.031 28.6371L42.6506 33.5303L44.5552 34.7527C44.8443 34.91 45.246 35.2283 45.5758 35.6212C45.6869 35.8404 45.7914 36.0667 45.885 36.2925C45.946 36.5429 45.9476 36.8415 45.9487 37.1106C45.9438 37.3845 45.8502 37.4985 45.8061 37.7002L45.7636 37.8355C45.6766 38.0651 45.6967 37.9752 45.6591 38.0613L45.5154 38.3133L44.9172 39.3013C44.5019 39.9478 44.0806 40.5889 43.6217 41.2043C42.7121 42.4416 41.7176 43.6273 40.5598 44.6651C39.4254 45.6849 38.021 46.6361 36.3907 46.7967C34.8105 46.8411 33.3403 46.5917 31.8156 46.503C30.3137 46.3074 28.8413 45.9019 27.3585 45.6126C25.9008 45.2049 24.4872 44.635 23.0567 44.1577C21.6855 43.5358 20.3491 42.829 18.9943 42.1692Z" fill="#25C7FA"/>
<path d="M69.11 13.2153C71.4707 13.2153 73.3344 13.8616 74.7012 15.154C76.0679 16.4464 76.7513 18.187 76.7513 20.3758C76.7513 22.5854 76.0679 24.3312 74.7012 25.6132C73.3344 26.8953 71.481 27.5363 69.141 27.5363H63.9537V35.541H59.0769V13.2153H69.11ZM67.8364 23.7215C69.2446 23.7215 70.2955 23.461 70.9892 22.9398C71.683 22.4187 72.0298 21.564 72.0298 20.3758C72.0298 19.2293 71.6933 18.3851 71.0203 17.8431C70.3473 17.301 69.2964 17.0301 67.8675 17.0301H63.9537V23.7215H67.8364ZM83.7403 13.2153V21.6265H83.8335C84.3304 20.7927 85.0035 20.1361 85.8525 19.6566C86.7015 19.1772 87.6024 18.9374 88.5549 18.9374C90.605 18.9374 92.0907 19.4586 93.0123 20.5009C93.9339 21.5431 94.3946 23.1899 94.3946 25.4413V35.541H89.9838V26.3481C89.9838 25.0348 89.7715 24.055 89.347 23.4088C88.9225 22.7627 88.1925 22.4395 87.1571 22.4395C85.9767 22.4395 85.1121 22.7991 84.5634 23.5183C84.0147 24.2374 83.7403 25.4205 83.7403 27.0672V35.541H79.3294V13.2153H83.7403ZM105.546 18.9374C108.114 18.9374 110.143 19.7244 111.634 21.2982C113.125 22.872 113.871 24.9307 113.871 27.4737C113.871 30.0377 113.11 32.0961 111.587 33.6492C110.065 35.2023 108.052 35.9787 105.546 35.9787C102.999 35.9787 100.98 35.1918 99.4888 33.618C97.9978 32.0441 97.2523 29.9961 97.2523 27.4737C97.2523 24.868 98.0133 22.7938 99.5354 21.2513C101.057 19.7088 103.061 18.9374 105.546 18.9374ZM101.663 27.4737C101.663 29.1205 101.994 30.392 102.657 31.2885C103.32 32.1849 104.283 32.633 105.546 32.633C106.851 32.633 107.829 32.1744 108.481 31.2572C109.134 30.34 109.46 29.0789 109.46 27.4737C109.46 25.806 109.123 24.524 108.45 23.6277C107.777 22.7314 106.799 22.2832 105.515 22.2832C104.272 22.2832 103.32 22.7313 102.657 23.6277C101.994 24.5241 101.663 25.806 101.663 27.4737ZM125.954 18.9374C128.004 18.9374 129.49 19.4587 130.411 20.5009C131.333 21.5431 131.793 23.2004 131.793 25.4725V35.541H127.383V26.3793C127.383 25.0452 127.17 24.055 126.746 23.4088C126.321 22.7627 125.591 22.4395 124.556 22.4395C123.355 22.4395 122.485 22.8043 121.947 23.5339C121.408 24.2635 121.139 25.4621 121.139 27.1298V35.541H116.728V19.3752H120.922V21.6265H121.015C122.112 19.8338 123.759 18.9374 125.954 18.9374ZM142.572 18.9374C144.084 18.9374 145.43 19.2918 146.61 20.0005C147.79 20.7093 148.717 21.7359 149.39 23.0805C150.063 24.425 150.4 25.9728 150.4 27.7238C150.4 27.8906 150.389 28.1616 150.369 28.5368H138.782C138.824 29.8292 139.16 30.835 139.792 31.5542C140.424 32.2734 141.392 32.633 142.696 32.633C143.504 32.633 144.244 32.4297 144.917 32.0232C145.59 31.6168 146.02 31.1217 146.206 30.538H150.089C148.95 34.1651 146.445 35.9787 142.572 35.9787C141.102 35.9578 139.74 35.6347 138.487 35.0094C137.234 34.384 136.235 33.4095 135.49 32.0858C134.744 30.762 134.372 29.2247 134.372 27.4737C134.372 25.8269 134.75 24.3259 135.505 22.971C136.261 21.6162 137.265 20.6051 138.518 19.938C139.771 19.2709 141.122 18.9374 142.572 18.9374ZM145.958 25.7227C145.751 24.5136 145.368 23.6382 144.808 23.0961C144.249 22.5541 143.452 22.2832 142.417 22.2832C141.34 22.2832 140.491 22.5906 139.87 23.2056C139.248 23.8205 138.886 24.6596 138.782 25.7227H145.958ZM158.321 13.2153V21.7829H167.298V13.2153H172.174V35.541H167.298V25.9103H158.321V35.541H153.444V13.2153H158.321ZM183.388 18.9374C188.068 18.9583 190.408 20.4904 190.408 23.5339V32.1014C190.408 33.6857 190.594 34.8323 190.967 35.541H186.494C186.328 35.0407 186.225 34.5195 186.183 33.9775C184.879 35.3117 183.077 35.9787 180.779 35.9787C179.101 35.9787 177.771 35.5514 176.787 34.6967C175.803 33.8421 175.312 32.6538 175.312 31.1321C175.312 29.6521 175.778 28.5056 176.709 27.6926C177.662 26.8379 179.391 26.296 181.897 26.0666C183.678 25.879 184.806 25.6445 185.283 25.3631C185.759 25.0817 185.997 24.6492 185.997 24.0655C185.997 23.3359 185.78 22.7939 185.345 22.4395C184.91 22.0851 184.185 21.9079 183.17 21.9079C182.238 21.9079 181.534 22.1008 181.058 22.4864C180.582 22.872 180.302 23.4922 180.219 24.3469H175.809C175.912 22.5751 176.637 21.2305 177.983 20.3133C179.329 19.396 181.13 18.9374 183.388 18.9374ZM179.722 30.9445C179.722 32.3203 180.623 33.0082 182.425 33.0082C184.786 32.9874 185.976 31.7679 185.997 29.3498V27.6301C185.645 27.9844 184.754 28.245 183.326 28.4117C182.083 28.5577 181.172 28.813 180.592 29.1778C180.012 29.5427 179.722 30.1315 179.722 30.9445ZM196.931 19.3752L200.317 30.4129H200.379L203.764 19.3752H208.144L202.708 35.541H197.801L192.303 19.3752H196.931ZM217.401 18.9374C218.912 18.9374 220.259 19.2918 221.439 20.0005C222.619 20.7093 223.546 21.7359 224.219 23.0805C224.892 24.425 225.228 25.9728 225.228 27.7238C225.228 27.8906 225.218 28.1616 225.197 28.5368H213.611C213.653 29.8292 213.989 30.835 214.621 31.5542C215.252 32.2734 216.22 32.633 217.525 32.633C218.333 32.633 219.073 32.4297 219.746 32.0232C220.419 31.6168 220.849 31.1217 221.035 30.538H224.918C223.779 34.1651 221.273 35.9787 217.401 35.9787C215.93 35.9578 214.569 35.6347 213.316 35.0094C212.063 34.384 211.064 33.4095 210.319 32.0858C209.573 30.762 209.2 29.2247 209.2 27.4737C209.2 25.8269 209.578 24.3259 210.334 22.971C211.09 21.6162 212.094 20.6051 213.347 19.938C214.6 19.2709 215.951 18.9374 217.401 18.9374ZM220.787 25.7227C220.579 24.5136 220.196 23.6382 219.637 23.0961C219.078 22.5541 218.281 22.2832 217.245 22.2832C216.169 22.2832 215.32 22.5906 214.698 23.2056C214.077 23.8205 213.715 24.6596 213.611 25.7227H220.787ZM237.032 18.9374C239.082 18.9374 240.568 19.4587 241.489 20.5009C242.411 21.5431 242.872 23.2004 242.872 25.4725V35.541H238.461V26.3793C238.461 25.0452 238.249 24.055 237.824 23.4088C237.4 22.7627 236.67 22.4395 235.634 22.4395C234.433 22.4395 233.564 22.8043 233.025 23.5339C232.487 24.2635 232.217 25.4621 232.217 27.1298V35.541H227.807V19.3752H232V21.6265H232.093C233.191 19.8338 234.837 18.9374 237.032 18.9374Z" fill="#1F2A37"/>
</svg>
